<svg xmlns="http://www.w3.org/2000/svg" width="37.483" height="23" viewBox="0 0 37.483 23">
  <g id="icons8_usa" transform="translate(-1.998 -10)">
    <path id="Path_16" data-name="Path 16" d="M2,10H39.479V33H2Z" fill="#eceff1"/>
    <path id="Path_17" data-name="Path 17" d="M2,10H39.481v2.556H2Zm0,5.111H39.481v2.556H2Zm0,5.111H39.481v2.556H2Zm0,5.111H39.481v2.556H2Zm0,5.111H39.481V33H2Z" transform="translate(0)" fill="#f44336"/>
    <path id="Path_18" data-name="Path 18" d="M2,10H19.889V22.778H2Z" transform="translate(0)" fill="#3f51b5"/>
    <g id="Group_32" data-name="Group 32" transform="translate(2.639 11.704)">
      <path id="Path_19" data-name="Path 19" d="M4.028,12l.394.842.883.135-.639.656.152.923-.791-.436-.791.436.152-.923-.639-.656.883-.135Zm3.407,0,.394.842.883.135-.639.656.152.923-.791-.436-.791.436.152-.923-.639-.656.883-.135Zm3.407,0,.394.842.883.135-.639.656.152.923-.791-.436-.791.436.152-.923-.639-.656.883-.135Zm3.407,0,.394.842.883.135-.639.656.152.923-.791-.436-.791.436.152-.923-.639-.656.883-.135Zm3.194,0,.394.842.883.135-.639.656.152.923-.791-.436-.791.436.152-.923-.639-.656.883-.135ZM4.028,18.815l.394.842.883.135-.639.656.152.923-.791-.436-.791.436.152-.923-.639-.656.883-.135Zm3.407,0,.394.842.883.135-.639.656.152.923-.791-.436-.791.436.152-.923-.639-.656.883-.135Zm3.407,0,.394.842.883.135-.639.656.152.923-.791-.436-.791.436.152-.923-.639-.656.883-.135Zm3.407,0,.394.842.883.135-.639.656.152.923-.791-.436-.791.436.152-.923-.639-.656.883-.135Zm3.194,0,.394.842.883.135-.639.656.152.923-.791-.436-.791.436.152-.923-.639-.656.883-.135ZM4.88,15.407l.394.842.883.135-.639.656.152.923-.791-.436-.791.436.152-.923L3.6,16.384l.883-.135Zm3.407,0,.394.842.883.135-.639.656.152.923-.791-.436-.791.436.152-.923-.639-.656.883-.135Zm3.407,0,.394.842.883.135-.639.656.152.923-.791-.436-.791.436.152-.923-.639-.656.883-.135Zm3.407,0,.394.842.883.135-.639.656.152.923-.791-.436-.791.436.152-.923-.639-.656.883-.135Zm3.194,0,.394.842.883.135-.639.656.152.923-.791-.436-.791.436.152-.923-.639-.656.883-.135Z" transform="translate(-2.75 -12)" fill="#fff"/>
    </g>
  </g>
</svg>
